<?xml version="1.0" encoding="UTF-8"?>
<svg width="118px" height="137px" viewBox="0 0 118 137" version="1.1" xmlns="http://www.w3.org/2000/svg" xmlns:xlink="http://www.w3.org/1999/xlink">
    <!-- Generator: Sketch 46.2 (44496) - http://www.bohemiancoding.com/sketch -->
    <title>Untitled</title>
    <desc>Created with Sketch.</desc>
    <defs>
        <radialGradient cx="0.454768602%" cy="0.475738704%" fx="0.454768602%" fy="0.475738704%" r="0.231481481%" id="radialGradient-1">
            <stop stop-color="#FFFFFF" offset="20%"></stop>
            <stop stop-color="#FFFFFF" stop-opacity="0" offset="73%"></stop>
        </radialGradient>
    </defs>
    <g id="Page-1" stroke="none" stroke-width="1" fill="none" fill-rule="evenodd">
        <g id="hands" transform="translate(-157.000000, -104.000000)">
            <g id="paw" transform="translate(157.000000, 104.000000)">
                <g id="paw_-_8px_shadow" fill="#F5F5F5">
                    <g id="Group">
                        <path d="M52.7,42.6 C54.8,31.3 55.4,19.8 54.5,8.3 C53.9,0.9 45.4,-2.9 40.5,2.7 C35,8.8 31.4,16.4 30.1,26.3 C29.5,31.4 30.2,36.7 33,40.9 C35.8,45.3 39.5,47.4 45.5,48.2 C49,48.6 52.2,46.1 52.7,42.6 Z M28.1,51.5 C27.3,47.9 26.4,44.1 25.2,39.7 C24.2,36 20.4,33.8 16.6,34.8 C15.8,35 15.1,35.4 14.4,35.8 L13.6,36.4 C5.5,41.8 0.6,50.9 0.6,60.6 L0.6,74.1 C0.6,78.5 2.6,82.7 6.1,85.5 C8.6,87.5 11.9,86.3 14.7,84.6 C21.9,80.2 25.5,77.2 29.9,71.7 C31.6,69.5 32.2,66.6 31.3,63.9 C30,59.7 29,55.7 28.1,51.5 Z M110.4,86.4 C108.5,87.6 106.1,86.9 104.3,85.5 C99.2,81.5 94.4,77.1 89.9,72.4 L89.9,72.4 L88.1,70.6 C85,67.2 84.5,62.2 87,58.3 C90,53.1 92.2,47.5 93.5,41.6 C94.7,36.5 100.5,33.8 104.9,36.7 C112.6,41.9 117.2,50.5 117.2,59.8 L117.2,74.1 C117.1,79.1 114.6,83.7 110.4,86.4 Z M95.5,97.1 C95.9,97.4 96.3,97.8 96.7,98.2 C104.5,106 104.6,118.6 96.8,126.5 C93,130.3 87.9,132.4 82.6,132.4 C79.3,132.4 76.1,131.6 73.2,130.1 C65.5,138 52.8,138.1 44.9,130.4 C44.8,130.3 44.7,130.2 44.6,130.1 C34.9,135.4 22.8,131.8 17.5,122.1 C13.2,114.2 14.7,104.5 21.1,98.2 C21.5,97.8 21.9,97.5 22.3,97.1 C23.7,95.9 25.3,94.9 26.9,94.1 C32.5,90.4 37.4,85.8 41.5,80.5 C42.4,79 43.5,77.6 44.7,76.3 C52.5,68.5 65.1,68.4 73,76.2 C73,76.2 73.1,76.3 73.1,76.3 C74.3,77.6 75.4,79 76.3,80.5 C79.8,84.5 85,88.9 93.9,95.7 C94.4,96.2 95,96.6 95.5,97.1 Z M62.9,8.3 C62.1,19.8 62.7,31.3 64.7,42.6 C65.2,46.1 68.4,48.6 71.9,48.2 C77.9,47.4 81.5,45.3 84.4,40.9 C87.3,36.5 87.9,31.3 87.3,26.3 C86.1,16.4 82.5,8.8 76.9,2.7 C72,-2.8 63.5,0.9 62.9,8.3 Z" id="Shape"></path>
                    </g>
                </g>
                <g id="paw_-_4px" fill="#F5F5F5">
                    <g id="Group">
                        <path d="M52.7,42.6 C54.8,31.3 55.4,19.8 54.5,8.3 C53.9,0.9 45.4,-2.9 40.5,2.7 C35,8.8 31.4,16.4 30.1,26.3 C29.5,31.4 30.2,36.7 33,40.9 C35.8,45.3 39.5,47.4 45.5,48.2 C49,48.6 52.2,46.1 52.7,42.6 Z M28.1,51.5 C27.3,47.9 26.4,44.1 25.2,39.7 C24.2,36 20.4,33.8 16.6,34.8 C15.8,35 15.1,35.4 14.4,35.8 L13.6,36.4 C5.5,41.8 0.6,50.9 0.6,60.6 L0.6,74.1 C0.6,78.5 2.6,82.7 6.1,85.5 C8.6,87.5 11.9,86.3 14.7,84.6 C21.9,80.2 25.5,77.2 29.9,71.7 C31.6,69.5 32.2,66.6 31.3,63.9 C30,59.7 29,55.7 28.1,51.5 Z M110.4,86.4 C108.5,87.6 106.1,86.9 104.3,85.5 C99.2,81.5 94.4,77.1 89.9,72.4 L89.9,72.4 L88.1,70.6 C85,67.2 84.5,62.2 87,58.3 C90,53.1 92.2,47.5 93.5,41.6 C94.7,36.5 100.5,33.8 104.9,36.7 C112.6,41.9 117.2,50.5 117.2,59.8 L117.2,74.1 C117.1,79.1 114.6,83.7 110.4,86.4 Z M95.5,97.1 C95.9,97.4 96.3,97.8 96.7,98.2 C104.5,106 104.6,118.6 96.8,126.5 C93,130.3 87.9,132.4 82.6,132.4 C79.3,132.4 76.1,131.6 73.2,130.1 C65.5,138 52.8,138.1 44.9,130.4 C44.8,130.3 44.7,130.2 44.6,130.1 C34.9,135.4 22.8,131.8 17.5,122.1 C13.2,114.2 14.7,104.5 21.1,98.2 C21.5,97.8 21.9,97.5 22.3,97.1 C23.7,95.9 25.3,94.9 26.9,94.1 C32.5,90.4 37.4,85.8 41.5,80.5 C42.4,79 43.5,77.6 44.7,76.3 C52.5,68.5 65.1,68.4 73,76.2 C73,76.2 73.1,76.3 73.1,76.3 C74.3,77.6 75.4,79 76.3,80.5 C79.8,84.5 85,88.9 93.9,95.7 C94.4,96.2 95,96.6 95.5,97.1 Z M62.9,8.3 C62.1,19.8 62.7,31.3 64.7,42.6 C65.2,46.1 68.4,48.6 71.9,48.2 C77.9,47.4 81.5,45.3 84.4,40.9 C87.3,36.5 87.9,31.3 87.3,26.3 C86.1,16.4 82.5,8.8 76.9,2.7 C72,-2.8 63.5,0.9 62.9,8.3 Z" id="Shape"></path>
                    </g>
                </g>
                <g id="paw_-_2px" fill="#F5F5F5">
                    <g id="Group">
                        <path d="M52.7,42.6 C54.8,31.3 55.4,19.8 54.5,8.3 C53.9,0.9 45.4,-2.9 40.5,2.7 C35,8.8 31.4,16.4 30.1,26.3 C29.5,31.4 30.2,36.7 33,40.9 C35.8,45.3 39.5,47.4 45.5,48.2 C49,48.6 52.2,46.1 52.7,42.6 Z M28.1,51.5 C27.3,47.9 26.4,44.1 25.2,39.7 C24.2,36 20.4,33.8 16.6,34.8 C15.8,35 15.1,35.4 14.4,35.8 L13.6,36.4 C5.5,41.8 0.6,50.9 0.6,60.6 L0.6,74.1 C0.6,78.5 2.6,82.7 6.1,85.5 C8.6,87.5 11.9,86.3 14.7,84.6 C21.9,80.2 25.5,77.2 29.9,71.7 C31.6,69.5 32.2,66.6 31.3,63.9 C30,59.7 29,55.7 28.1,51.5 Z M110.4,86.4 C108.5,87.6 106.1,86.9 104.3,85.5 C99.2,81.5 94.4,77.1 89.9,72.4 L89.9,72.4 L88.1,70.6 C85,67.2 84.5,62.2 87,58.3 C90,53.1 92.2,47.5 93.5,41.6 C94.7,36.5 100.5,33.8 104.9,36.7 C112.6,41.9 117.2,50.5 117.2,59.8 L117.2,74.1 C117.1,79.1 114.6,83.7 110.4,86.4 Z M95.5,97.1 C95.9,97.4 96.3,97.8 96.7,98.2 C104.5,106 104.6,118.6 96.8,126.5 C93,130.3 87.9,132.4 82.6,132.4 C79.3,132.4 76.1,131.6 73.2,130.1 C65.5,138 52.8,138.1 44.9,130.4 C44.8,130.3 44.7,130.2 44.6,130.1 C34.9,135.4 22.8,131.8 17.5,122.1 C13.2,114.2 14.7,104.5 21.1,98.2 C21.5,97.8 21.9,97.5 22.3,97.1 C23.7,95.9 25.3,94.9 26.9,94.1 C32.5,90.4 37.4,85.8 41.5,80.5 C42.4,79 43.5,77.6 44.7,76.3 C52.5,68.5 65.1,68.4 73,76.2 C73,76.2 73.1,76.3 73.1,76.3 C74.3,77.6 75.4,79 76.3,80.5 C79.8,84.5 85,88.9 93.9,95.7 C94.4,96.2 95,96.6 95.5,97.1 Z M62.9,8.3 C62.1,19.8 62.7,31.3 64.7,42.6 C65.2,46.1 68.4,48.6 71.9,48.2 C77.9,47.4 81.5,45.3 84.4,40.9 C87.3,36.5 87.9,31.3 87.3,26.3 C86.1,16.4 82.5,8.8 76.9,2.7 C72,-2.8 63.5,0.9 62.9,8.3 Z" id="Shape"></path>
                    </g>
                </g>
                <path d="M30,30.6 C29.9,29.2 30,27.7 30.2,26.3 C31.4,16.4 35,8.8 40.6,2.7 C45.6,-2.8 54,0.9 54.6,8.3 C54.9,11.8 55,15.1 55,18.5 C55,15.8 54.8,13.1 54.6,10.3 C54,2.9 45.6,-0.9 40.6,4.7 C35.1,10.8 31.5,18.4 30.2,28.3 C30.1,29.1 30,29.8 30,30.6 Z M62.9,10.3 C63.5,2.9 71.9,-0.9 76.9,4.7 C82.4,10.8 86,18.4 87.3,28.3 C87.4,29.1 87.4,29.8 87.5,30.6 C87.6,29.2 87.5,27.7 87.3,26.3 C86.1,16.4 82.5,8.8 76.9,2.7 C71.9,-2.8 63.5,0.9 62.9,8.3 C62.6,11.8 62.5,15.1 62.5,18.5 C62.6,15.8 62.7,13.1 62.9,10.3 Z M95.5,97.1 C95,96.6 94.4,96.2 93.8,95.8 C84.9,89 79.8,84.6 76.2,80.6 C75.3,79.1 74.3,77.6 73,76.4 C65.2,68.6 52.6,68.5 44.7,76.3 C44.7,76.3 44.6,76.4 44.6,76.4 C43.4,77.7 42.3,79.1 41.4,80.6 C37.3,85.9 32.4,90.5 26.8,94.2 C25.1,95 23.6,96 22.2,97.2 C21.8,97.5 21.4,97.9 21,98.3 C17.2,102.1 15.1,107.2 15.1,112.5 C15.1,112.8 15.1,113.2 15.2,113.5 C15.5,108.5 17.5,103.8 21,100.3 C21.4,99.9 21.8,99.6 22.2,99.2 C23.6,98 25.2,97 26.8,96.2 C32.4,92.5 37.3,87.9 41.4,82.6 C42.3,81.1 43.4,79.7 44.6,78.4 C52.4,70.6 65,70.5 72.9,78.3 C72.9,78.3 73,78.4 73,78.4 C74.2,79.7 75.3,81.1 76.2,82.6 C79.7,86.6 84.9,91 93.8,97.8 C94.4,98.2 95,98.6 95.5,99.1 C95.9,99.4 96.3,99.8 96.7,100.2 C100.2,103.7 102.3,108.4 102.5,113.4 C102.5,113.1 102.6,112.7 102.6,112.4 C102.6,107.1 100.5,102 96.7,98.2 C96.3,97.8 95.9,97.4 95.5,97.1 Z M13.6,38.3 L14.4,37.7 C17.6,35.5 22,36.3 24.2,39.5 C24.6,40.1 25,40.8 25.2,41.6 C26.4,46 27.3,49.8 28.1,53.4 C29.1,57.7 30,61.6 31.2,65.8 C31.4,66.3 31.5,66.9 31.5,67.4 C31.6,66.2 31.5,65 31.2,63.8 C29.9,59.6 29,55.6 28.1,51.4 C27.3,47.8 26.4,44 25.2,39.6 C24.2,35.9 20.4,33.7 16.6,34.7 C15.8,34.9 15.1,35.3 14.4,35.7 L13.6,36.3 C5.5,41.7 0.6,50.8 0.6,60.5 L0.6,62.5 C0.6,52.8 5.5,43.7 13.6,38.3 Z M104.8,36.7 C100.5,33.8 94.6,36.6 93.4,41.6 C92.2,47.5 90,53.1 86.9,58.3 C85.7,60.3 85.2,62.6 85.4,64.9 C85.6,63.3 86.1,61.7 86.9,60.3 C89.9,55.1 92.1,49.5 93.4,43.6 C94.6,38.5 100.4,35.8 104.8,38.7 C112.5,43.9 117.1,52.5 117.1,61.8 L117.1,59.8 C117.1,50.5 112.5,41.9 104.8,36.7 L104.8,36.7 Z" id="tint-2" fill="#FFFFFF" fill-rule="nonzero"></path>
            </g>
            <rect id="finish_layer" fill-opacity="0.24" fill="url(#radialGradient-1)" fill-rule="nonzero" x="0" y="0" width="432" height="432"></rect>
        </g>
    </g>
</svg>